<?xml version="1.0" encoding="UTF-8" standalone="no"?>
<svg
   xmlns:dc="http://purl.org/dc/elements/1.1/"
   xmlns:cc="http://creativecommons.org/ns#"
   xmlns:rdf="http://www.w3.org/1999/02/22-rdf-syntax-ns#"
   xmlns:svg="http://www.w3.org/2000/svg"
   xmlns="http://www.w3.org/2000/svg"
   xmlns:sodipodi="http://sodipodi.sourceforge.net/DTD/sodipodi-0.dtd"
   xmlns:inkscape="http://www.inkscape.org/namespaces/inkscape"
   width="210mm"
   height="297mm"
   viewBox="0 0 210 297"
   version="1.1"
   id="svg8"
   inkscape:version="1.0.1 (0767f8302a, 2020-10-17)"
   sodipodi:docname="semoogle.svg"
   inkscape:export-filename="/home/d/Downloads/semoogle.png"
   inkscape:export-xdpi="59.323631"
   inkscape:export-ydpi="59.323631">
  <defs
     id="defs2">
    <rect
       x="36.012867"
       y="73.62955"
       width="130.0654"
       height="96.52447"
       id="rect12" />
  </defs>
  <sodipodi:namedview
     id="base"
     pagecolor="#ffffff"
     bordercolor="#666666"
     borderopacity="1.0"
     inkscape:pageopacity="0.0"
     inkscape:pageshadow="2"
     inkscape:zoom="1.0400907"
     inkscape:cx="362.5926"
     inkscape:cy="397.30641"
     inkscape:document-units="mm"
     inkscape:current-layer="layer1"
     inkscape:document-rotation="0"
     showgrid="false"
     inkscape:window-width="1920"
     inkscape:window-height="1016"
     inkscape:window-x="0"
     inkscape:window-y="27"
     inkscape:window-maximized="1" />
  <metadata
     id="metadata5">
    <rdf:RDF>
      <cc:Work
         rdf:about="">
        <dc:format>image/svg+xml</dc:format>
        <dc:type
           rdf:resource="http://purl.org/dc/dcmitype/StillImage" />
        <dc:title />
      </cc:Work>
    </rdf:RDF>
  </metadata>
  <g
     inkscape:label="Layer 1"
     inkscape:groupmode="layer"
     id="layer1">
    <text
       xml:space="preserve"
       id="text10"
       style="font-family:'Ubuntu Condensed';-inkscape-font-specification:'Ubuntu Condensed, ';white-space:pre;shape-inside:url(#rect12);fill:#ffffff;"
       inkscape:export-filename="/home/d/Downloads/semoogle.png"
       inkscape:export-xdpi="400"
       inkscape:export-ydpi="400" />
    <text
       xml:space="preserve"
       style="font-size:3.175px;font-family:'Ubuntu Condensed';-inkscape-font-specification:'Ubuntu Condensed, ';fill:#ffffff;stroke-width:0.264583"
       x="5.4608102"
       y="120.1288"
       id="text18"
       inkscape:export-filename="/home/d/Downloads/semoogle.png"
       inkscape:export-xdpi="29.661816"
       inkscape:export-ydpi="29.661816"><tspan
         sodipodi:role="line"
         id="tspan16"
         x="5.4608102"
         y="120.1288"
         style="font-style:normal;font-variant:normal;font-weight:normal;font-stretch:normal;font-size:42.3333px;font-family:Likhan;-inkscape-font-specification:Likhan;fill:#000000;stroke-width:0.264583"><tspan
           style="fill:#00b0ff;fill-opacity:1"
           id="tspan1051">Sem-</tspan><tspan
           style="font-style:normal;font-variant:normal;font-weight:normal;font-stretch:normal;font-family:Likhan;-inkscape-font-specification:Likhan;fill:#c83737"
           id="tspan22">oo </tspan><tspan
           style="font-style:normal;font-variant:normal;font-weight:normal;font-stretch:normal;font-family:Likhan;-inkscape-font-specification:Likhan;fill:#ffcc00"
           id="tspan26">gle</tspan></tspan><tspan
         sodipodi:role="line"
         x="5.4608102"
         y="136.85605"
         style="fill:#000000;stroke-width:0.264583"
         id="tspan20" /></text>
    <g
       id="g224"
       transform="matrix(0.12997057,0,0,0.12997057,58.019003,43.715886)"
       inkscape:export-filename="/home/d/Downloads/semoogle.png"
       inkscape:export-xdpi="29.661816"
       inkscape:export-ydpi="29.661816">
      <rect
         x="0.27491999"
         y="0.36500999"
         width="643.86163"
         height="412.3576"
         fill="#e6e6e6"
         id="rect133" />
      <rect
         x="18.685989"
         y="52.084942"
         width="607.03949"
         height="336.24258"
         fill="#ffffff"
         id="rect135" />
      <rect
         width="643.86163"
         height="27.3536"
         fill="#00b0ff"
         id="rect137"
         x="0"
         y="0" />
      <circle
         cx="20.327"
         cy="13.98461"
         r="5.0697799"
         fill="#ffffff"
         id="circle139" />
      <circle
         cx="39.57061"
         cy="13.98461"
         r="5.0697799"
         fill="#ffffff"
         id="circle141" />
      <circle
         cx="58.81422"
         cy="13.98461"
         r="5.0697799"
         fill="#ffffff"
         id="circle143" />
      <rect
         x="73.843849"
         y="86.972839"
         width="155.98055"
         height="266.46677"
         fill="#e6e6e6"
         id="rect145" />
      <rect
         x="256.7496"
         y="86.972839"
         width="129.9838"
         height="73.347992"
         fill="#00b0ff"
         id="rect147" />
      <rect
         x="256.7496"
         y="180.74686"
         width="129.9838"
         height="78.918732"
         fill="#e6e6e6"
         id="rect149" />
      <rect
         x="256.7496"
         y="280.09161"
         width="129.9838"
         height="73.347992"
         fill="#e6e6e6"
         id="rect151" />
      <rect
         x="414.58707"
         y="86.972839"
         width="155.98055"
         height="116.12476"
         fill="#e6e6e6"
         id="rect153" />
      <rect
         x="414.58707"
         y="237.31485"
         width="155.98055"
         height="116.12476"
         fill="#00b0ff"
         id="rect155" />
      <path
         d="m 936.78726,353.0853 c -10.28895,-17.5356 -30.64482,-18.35283 -30.64482,-18.35283 0,0 -19.83563,-2.55851 -32.56006,24.14841 -11.86019,24.89305 -28.22876,48.9278 -2.63521,54.75508 l 4.62294,-14.51317 2.863,15.59366 a 99.28429,99.28429 0 0 0 10.95053,0.18877 c 27.40862,-0.89257 53.5112,0.26114 52.67074,-9.65934 -1.1173,-13.18788 4.63292,-35.28783 -5.26712,-52.16058 z"
         transform="translate(-200.14843,-146.40617)"
         fill="#2f2e41"
         id="path157" />
      <path
         d="m 839.21678,446.71189 -9,23 -45,42 c 0,0 -27,20 -15,26 12,6 23,-22 23,-22 l 48,-29 10,-33 z"
         transform="translate(-200.14843,-146.40617)"
         fill="#ffb8b8"
         id="path159" />
      <polygon
         points="654.068,555.306 663.068,578.306 676.068,578.306 665.068,551.306 "
         fill="#ffb8b8"
         id="polygon161" />
      <polygon
         points="693.068,565.306 702.068,588.306 715.068,588.306 704.068,561.306 "
         fill="#ffb8b8"
         id="polygon163" />
      <path
         d="m 892.21678,715.71189 17,-4 -22,-89 7.30462,-68.48066 0.19538,-0.0193 c 0,0 12.5,-48.5 2.5,-61.5 -10,-13 -60,-8 -60,-8 0,0 -19,19 -18,62 1,43 0,80 7,97 7,17 27,62 27,62 l 16,-2 -17,-74 -2.71808,-64.32715 c 2.16314,25.77813 6.51709,74.65881 8.71808,78.32715 3,5 34,72 34,72 z"
         transform="translate(-200.14843,-146.40617)"
         fill="#2f2e41"
         id="path165" />
      <path
         d="m 943.21678,467.71189 7,25 31,56 c 0,0 27.00002,24 16,27 -11,3 -28,-22 -28,-22 l -35,-49 -9,-36 z"
         transform="translate(-200.14843,-146.40617)"
         fill="#ffb8b8"
         id="path167" />
      <circle
         cx="707.06836"
         cy="225.30573"
         r="25"
         fill="#ffb8b8"
         id="circle169" />
      <path
         d="m 894.21678,384.71189 -6,19 -10,22 37,-15 c 0,0 -2,-16 0,-20 z"
         transform="translate(-200.14843,-146.40617)"
         fill="#ffb8b8"
         id="path171" />
      <path
         d="m 937.21678,424.71189 -23,-19 -26,11 1.01872,-16.226 -27.74116,8.85981 -4.27756,1.36615 -6,31 c 0,0 -4,3 -8,20 a 146.503,146.503 0 0 1 -10,29 c 0,0 43,-17 64,6 0,0 3,-2 2,-5 -1,-3 9,-18 9,-18 0,0 0,3 4,-3 4,-6 7,-7 7,-7 z"
         transform="translate(-200.14843,-146.40617)"
         fill="#00b0ff"
         id="path173" />
      <path
         d="m 863.21678,413.71189 -4.3679,-3.52126 c 0,0 -3.6321,-1.47874 -6.6321,3.52126 -3,5 -18,36 -18,36 l 18,9 z"
         transform="translate(-200.14843,-146.40617)"
         fill="#00b0ff"
         id="path175" />
      <path
         d="m 923.21678,423.71189 14,1 c 0,0 8,4 8,10 0,6 2,38 2,38 l -22,7 -9,-28 z"
         transform="translate(-200.14843,-146.40617)"
         fill="#00b0ff"
         id="path177" />
      <path
         d="m 860.327,721.21189 -17,7 c 0,0 -20,1 -17,11 3,10 33,3 33,3 0,0 27,1 27,-6 0,-7 -4,-15 -8,-15 z"
         transform="translate(-200.14843,-146.40617)"
         fill="#2f2e41"
         id="path179" />
      <path
         d="m 898.327,730.21189 -17,7 c 0,0 -20,1 -17,11 3,10 33,3 33,3 0,0 27,1 27,-6 0,-7 -4,-15 -8,-15 z"
         transform="translate(-200.14843,-146.40617)"
         fill="#2f2e41"
         id="path181" />
      <polygon
         points="692.765,223.753 696.761,214.348 696.761,223.598 703.361,223.342 707.191,208.37 709.585,224.307 733.048,223.824 732.09,204.989 711.979,194.363 684.208,198.71 678.462,224.307 "
         fill="#2f2e41"
         id="polygon183" />
      <path
         d="m 797.72843,229.95254 a 135.01972,135.01972 0 1 0 7.65506,199.40281 L 971.00163,569.1031 a 12.44209,12.44209 0 1 0 16.04759,-19.01834 L 821.43108,410.337 A 135.02731,135.02731 0 0 0 797.72843,229.95254 Z m -10.67672,166.92767 a 101.15766,101.15766 0 1 1 -12.07656,-142.54785 101.15764,101.15764 0 0 1 12.07656,142.54785 z"
         transform="translate(-200.14843,-146.40617)"
         fill="#3f3d56"
         id="path185" />
      <path
         d="M 644.50378,408.95686 A 101.16313,101.16313 0 0 1 627.33821,272.96792 q -2.90123,2.92175 -5.60938,6.1199 a 101.15766,101.15766 0 1 0 154.62445,130.47133 q 2.702,-3.20223 5.089,-6.559 a 101.163,101.163 0 0 1 -136.9385,5.95671 z"
         transform="translate(-200.14843,-146.40617)"
         opacity="0.3"
         id="path187" />
    </g>
  </g>
</svg>
